<svg xmlns="http://www.w3.org/2000/svg" xmlns:xlink="http://www.w3.org/1999/xlink" width="24" height="24" viewBox="0 0 24 24"><defs><path id="mj83a" d="M839.536 459.245a.395.395 0 0 1 0-.572l6.137-6.137a.884.884 0 0 0 .245-.572.884.884 0 0 0-.245-.573l-1.146-1.146a.884.884 0 0 0-.572-.245.743.743 0 0 0-.573.245l-6.137 6.137a.395.395 0 0 1-.572 0l-6.137-6.137a.884.884 0 0 0-.572-.245.884.884 0 0 0-.573.245l-1.146 1.146a.884.884 0 0 0-.245.573c0 .163.082.409.245.572l6.137 6.137a.395.395 0 0 1 0 .572l-6.137 6.137a.884.884 0 0 0-.245.573c0 .163.082.409.245.572l1.146 1.146c.164.163.409.245.573.245.163 0 .409-.082.572-.245l6.137-6.137a.395.395 0 0 1 .572 0l6.137 6.137c.163.163.409.245.573.245.163 0 .409-.082.572-.245l1.146-1.146a.884.884 0 0 0 .245-.572.884.884 0 0 0-.245-.573z"/></defs><g><g transform="translate(-825 -447)"><use fill="#3fad89" xlink:href="#mj83a"/></g></g></svg>